#!OML:ASF X:\für Bonn\!DataBase\2005_08_11_Bastian_Final\c3d\Bastian.ASF
:FULLY-SPECIFIED
:DEGREES
49
root 3.39537 21.7993 10.9046 1077.92 -6.0841 -3.89258
lowerback 8.35362 0.0778925 1.18953
upperback 5.47543 0.169449 -0.669988
thorax 0.986618 0.120298 -1.3705
lowerneck -16.3336 -4.46894 -9.22843
upperneck 5.15645 -5.02011 9.84103
head 4.67911 -2.06466 4.1341
rclavicle -4.96962e-015 -7.15625e-015
rhumerus -54.0356 9.06347 -93.6212
rradius 54.1969
rwrist -2.99588
rhand -21.3802 20.0703
rfingers 7.12502
rthumb 5.00727 -9.85058
lclavicle -4.96962e-015 -7.15625e-015
lhumerus -40.8556 -6.08472 81.9168
lradius 70.0484
lwrist -161.965
lhand -24.1 5.69051
lfingers 7.12502
lthumb 2.38075 35.657
rfemur -14.2359 -2.81387 26.6388
rtibia 48.5181
rfoot 8.00966 -1.18603
rtoes -25.8686
lfemur -12.6264 2.10427 -15.2847
ltibia 40.7891
lfoot 12.9766 -8.36948
ltoes -28.8303
50
root 3.38224 21.7207 11.1176 1078.12 -6.29889 -3.59109
lowerback 8.64296 0.171137 0.834541
upperback 5.54758 0.270602 -0.786448
thorax 0.904362 0.163371 -1.29989
lowerneck -16.2695 -4.5213 -9.13238
upperneck 4.86843 -5.10185 9.88076
head 4.58703 -2.10397 4.12352
rclavicle 5.36719e-015 -1.66979e-014
rhumerus -54.2704 8.77793 -93.5581
rradius 54.6428
rwrist -2.86767
rhand -21.0929 19.9196
rfingers 7.12502
rthumb 5.28462 -9.99451
lclavicle 5.36719e-015 -1.66979e-014
lhumerus -40.7896 -6.07052 81.7882
lradius 69.8521
lwrist -161.967
lhand -24.1799 6.20952
lfingers 7.12502
lthumb 2.30362 36.1768
rfemur -14.7637 -2.71441 26.3246
rtibia 47.7597
rfoot 7.5847 -0.560984
rtoes -26.623
lfemur -12.914 2.03848 -15.6002
ltibia 39.8052
lfoot 12.5117 -7.5374
ltoes -29.1108
51
root 3.36949 21.6341 11.3312 1078.31 -6.48399 -3.37548
lowerback 8.9413 0.232946 0.552983
upperback 5.61199 0.332991 -0.85512
thorax 0.808005 0.18809 -1.21898
lowerneck -16.1206 -4.55022 -9.12847
upperneck 4.52149 -5.14016 9.96713
head 4.46316 -2.1241 4.14809
rclavicle 1.03368e-014 -1.98785e-014
rhumerus -54.5117 8.60259 -93.4866
rradius 55.114
rwrist -2.81204
rhand -20.7534 19.6664
rfingers 7.12502
rthumb 5.61242 -10.2393
lclavicle 1.03368e-014 -1.98785e-014
lhumerus -40.7508 -5.99748 81.6887
lradius 69.6441
lwrist -161.945
lhand -24.2025 6.66175
lfingers 7.12502
lthumb 2.28182 36.6293
rfemur -15.2678 -2.64081 26.105
rtibia 47.0002
rfoot 7.14123 -0.0832021
rtoes -26.9968
lfemur -13.1948 1.95094 -15.8225
ltibia 38.8515
lfoot 12.1012 -6.68534
ltoes -29.9976
52
root 3.35671 21.5336 11.5454 1078.51 -6.66014 -3.28388
lowerback 9.21384 0.28571 0.404008
upperback 5.69223 0.391477 -0.895527
thorax 0.742917 0.213957 -1.18333
lowerneck -15.9918 -4.56985 -9.1099
upperneck 4.16358 -5.16444 10.0359
head 4.33709 -2.13792 4.16605
rclavicle -2.78299e-015 8.74653e-015
rhumerus -54.6424 8.4537 -93.4289
rradius 55.5327
rwrist -2.78866
rhand -20.4534 19.3865
rfingers 7.12502
rthumb 5.9021 -10.5113
lclavicle -2.78299e-015 8.74653e-015
lhumerus -40.6682 -5.97671 81.61
lradius 69.3687
lwrist -161.889
lhand -24.1886 7.14826
lfingers 7.12502
lthumb 2.29523 37.1157
rfemur -15.8047 -2.6826 26.0257
rtibia 46.2605
rfoot 6.74405 0.425638
rtoes -27.4049
lfemur -13.4666 1.86544 -15.8985
ltibia 37.9227
lfoot 11.7904 -5.70634
ltoes -30.9881
53
root 3.34396 21.42 11.7588 1078.73 -6.83713 -3.21926
lowerback 9.51992 0.347536 0.268944
upperback 5.72364 0.461869 -0.923621
thorax 0.609065 0.24557 -1.14465
lowerneck -15.7525 -4.56083 -9.00895
upperneck 3.74086 -5.16567 10.049
head 4.16777 -2.14585 4.15642
rclavicle 2.78299e-015 5.56597e-015
rhumerus -54.775 8.16962 -93.3187
rradius 55.9048
rwrist -2.62856
rhand -20.1506 19.2212
rfingers 7.12502
rthumb 6.19442 -10.6682
lclavicle 2.78299e-015 5.56597e-015
lhumerus -40.6096 -5.95842 81.5595
lradius 69.0855
lwrist -161.862
lhand -24.1322 7.63679
lfingers 7.12502
lthumb 2.34969 37.6036
rfemur -16.4053 -2.72529 25.9882
rtibia 45.5567
rfoot 6.34071 0.831413
rtoes -27.7665
lfemur -13.7673 1.80482 -15.9445
ltibia 37.02
lfoot 11.5402 -4.65802
ltoes -31.2867
54
root 3.33197 21.2966 11.9702 1078.97 -6.98868 -3.15651
lowerback 9.79925 0.390275 0.152165
upperback 5.76663 0.507547 -0.959062
thorax 0.50164 0.265594 -1.12191
lowerneck -15.5647 -4.5344 -8.88007
upperneck 3.30055 -5.1439 10.072
head 3.99915 -2.14061 4.14736
rclavicle 1.09332e-014 -6.36111e-015
rhumerus -54.8221 7.90801 -93.2181
rradius 56.2149
rwrist -2.55032
rhand -19.8731 19.1356
rfingers 7.12502
rthumb 6.46228 -10.7458
lclavicle 1.09332e-014 -6.36111e-015
lhumerus -40.4638 -5.91364 81.4936
lradius 68.8116
lwrist -161.877
lhand -24.1025 8.0768
lfingers 7.12502
lthumb 2.37838 38.0433
rfemur -17.08 -2.89396 25.9639
rtibia 44.9014
rfoot 5.84695 1.27226
rtoes -28.6886
lfemur -14.126 1.69166 -15.9906
ltibia 36.1589
lfoot 11.3559 -3.64038
ltoes -31.1803
55
root 3.31979 21.1639 12.18 1079.24 -7.12849 -3.12479
lowerback 10.1047 0.440698 0.0693424
upperback 5.76001 0.565067 -0.988633
thorax 0.329009 0.292063 -1.11415
lowerneck -15.2811 -4.50939 -8.73873
upperneck 2.84731 -5.13125 10.087
head 3.81221 -2.14326 4.13413
rclavicle -7.95139e-016 -1.59028e-015
rhumerus -54.9593 7.66781 -93.1744
rradius 56.4984
rwrist -2.48347
rhand -19.7507 19.1199
rfingers 7.12502
rthumb 6.58049 -10.7579
lclavicle -7.95139e-016 -1.59028e-015
lhumerus -40.3559 -5.95102 81.4452
lradius 68.5553
lwrist -161.807
lhand -24.1158 8.52925
lfingers 7.12502
lthumb 2.36556 38.4959
rfemur -17.8025 -3.1387 25.9906
rtibia 44.3055
rfoot 5.28174 1.69924
rtoes -29.7615
lfemur -14.5327 1.63432 -15.9914
ltibia 35.3569
lfoot 11.1383 -2.93228
ltoes -31.494
